<svg width="600" height="200" xmlns="http://www.w3.org/2000/svg">
  <defs>
    <linearGradient id="gradient1" x1="0%" y1="0%" x2="100%" y2="0%">
      <stop offset="0%" style="stop-color:#00d4ff;stop-opacity:1" />
      <stop offset="100%" style="stop-color:#7c3aed;stop-opacity:1" />
    </linearGradient>
    <filter id="glow">
      <feGaussianBlur stdDeviation="2" result="coloredBlur"/>
      <feMerge>
        <feMergeNode in="coloredBlur"/>
        <feMergeNode in="SourceGraphic"/>
      </feMerge>
    </filter>
  </defs>

  <!-- Background -->
  <rect width="600" height="200" fill="#0d1117" rx="10"/>

  <!-- Terminal window frame -->
  <rect x="40" y="40" width="120" height="120" fill="#1f2937" rx="8" stroke="url(#gradient1)" stroke-width="2"/>

  <!-- Terminal dots (close, minimize, maximize) -->
  <circle cx="55" cy="55" r="4" fill="#ef4444"/>
  <circle cx="70" cy="55" r="4" fill="#f59e0b"/>
  <circle cx="85" cy="55" r="4" fill="#10b981"/>

  <!-- Dashboard icon - widget grid layout -->
  <g filter="url(#glow)">
    <!-- Dashboard widgets (2x2 grid) -->
    <!-- Top left widget -->
    <rect x="60" y="75" width="30" height="25" rx="3" fill="none" stroke="url(#gradient1)" stroke-width="2"/>
    <line x1="65" y1="82" x2="85" y2="82" stroke="#00d4ff" stroke-width="1.5"/>
    <rect x="65" y="86" width="20" height="3" rx="1" fill="#00d4ff" opacity="0.6"/>
    <rect x="65" y="91" width="15" height="3" rx="1" fill="#00d4ff" opacity="0.4"/>

    <!-- Top right widget -->
    <rect x="95" y="75" width="30" height="25" rx="3" fill="none" stroke="url(#gradient1)" stroke-width="2"/>
    <circle cx="110" cy="87" r="6" fill="none" stroke="#00d4ff" stroke-width="2"/>
    <path d="M 105 87 L 108 90 L 115 83" stroke="#10b981" stroke-width="2" fill="none"/>

    <!-- Bottom left widget -->
    <rect x="60" y="105" width="30" height="25" rx="3" fill="none" stroke="url(#gradient1)" stroke-width="2"/>
    <rect x="65" y="110" width="8" height="12" rx="1" fill="#00d4ff" opacity="0.8"/>
    <rect x="75" y="115" width="8" height="7" rx="1" fill="#00d4ff" opacity="0.6"/>

    <!-- Bottom right widget -->
    <rect x="95" y="105" width="30" height="25" rx="3" fill="none" stroke="url(#gradient1)" stroke-width="2"/>
    <path d="M 100 122 Q 105 115, 110 122 T 120 122" stroke="#00d4ff" stroke-width="2" fill="none"/>
  </g>

  <!-- Text: ServerHub -->
  <text x="180" y="115" font-family="'Courier New', monospace" font-size="56" font-weight="bold" fill="url(#gradient1)">ServerHub</text>

  <!-- Tagline -->
  <text x="182" y="145" font-family="'Courier New', monospace" font-size="16" fill="#6b7280">Monitor. Act. Extend.</text>
</svg>
